<?xml version="1.0" encoding="UTF-8"?>
<svg id="Layer_1" data-name="Layer 1" xmlns="http://www.w3.org/2000/svg" viewBox="0 0 512 512">
  <defs>
    <style>
      .cls-1 {
        fill: #2da9e1;
      }

      .cls-2 {
        fill: #093250;
      }

      .cls-3 {
        fill: #fff;
      }
    </style>
  </defs>
  <rect class="cls-2" width="512" height="512"/>
  <g>
    <path class="cls-1" d="M445.86,177.6c-3.39-45.37-32.35-91.57-77.5-99.67-21.4-3.21-42.36-1.21-62.1,7.62-10.37-7.32-20.37-12.17-33.28-17.59,64.92-24.52,136.06-19.73,189.38,27.4l.3,81.9c-5.53,1.2-11.02,1.31-16.79.33Z"/>
    <path class="cls-1" d="M304.69,454.74c-40.31-3.15-98.62-29.98-97.73-67.74.39-16.43-1.61-31.42,1.76-50.08,30.73,43.94,51.29,86.92,95.97,117.83Z"/>
    <path class="cls-3" d="M368.81,428.08c-22.52-4.58-41.2-37.73-55.53-59.59l-68.59-104.62,16.1-7.53-32.5-28.03c-25.29,22.29-60.88,16.22-94.71,17.21l.24-156.32c54.79-13.87,115.04-2.28,136.99,53.36,11.16,28.31,31.15,40.48,57.63,54.91,7.26-24.44,6.6-48.29-2.25-70.7-18.95-48-82.15-64.03-131.75-64.16l-166.06-.44c-.85,4.53-.89,9.77.03,12.27,10.64.86,20.65,1,28.38,6.75,8.69,6.47,13.17,18.04,13.19,29.47l.38,274.92c.02,17.41-3.93,42.03-16.28,47.31-8.07,3.45-16.69,4.52-25.26,5.99-1.8,2.19-1.78,8.83.11,10.97h147.51c.63-3.4,1.13-8.58-.5-9.94-4.89-4.06-25.98-1.5-34.74-18.16-4.57-8.69-7.55-20.02-7.56-30.44l-.08-125.24,29.33.19c8.76.06,17.11,4.97,21.82,12.24l16.33,25.21c21.83,33.7,41.1,67.78,64.66,100.41,12.53,17.35,27.84,32.89,47.28,42.3-19.44-9.41,33.32-22.92,55.85-18.34Z"/>
    <path class="cls-1" d="M226.84,104.21c36.99,19.17,31.44,51.52,56.93,73.51,48.1,41.5,104.81,54.33,156.06,90.08,30.85,21.53,47.74,56.28,44.25,94-2.77,29.86-16.45,55.48-41.39,72.93-37.49,26.23-87.96,31.89-129.71,11.69-19.44-9.41,33.32-22.92,55.85-18.34,19.6,3.99,38.64-8.04,46.96-25.77,16.58-35.32,1.75-66.96-30.52-88.5-37.38-24.94-78.35-40.46-118.26-65.85-20.82-13.24-37.65-30.95-48.39-53.18-12.58-26.03-10.37-67.33,8.24-90.58Z"/>
  </g>
</svg>